# xmcd CD database file
#
# Track frame offsets:
#	150
#	14144
#	27658
#	43881
#	56656
#	72650
#	88320
#	103499
#	119409
#	128736
#	145510
#	158836
#	168268
#	179762
#	206159
#
# Disc length: 3346 seconds
#
# Revision: 1
# Processed by: cddbd v1.5.1PL2 Copyright (c) Steve Scherf et al.
# Submitted via: CDex 1.50
#
DISCID=ef0d100f
DTITLE=Nova Era - Crescendo
DYEAR=2001
DGENRE=New Age
TTITLE0=The Quest
TTITLE1=Anniversary
TTITLE2=Can You "Haendel" This? (from J. Haendel's Water Music)
TTITLE3=La Nostra Storia
TTITLE4=April
TTITLE5=Air (J.S. Bach)
TTITLE6=Timescapes
TTITLE7=Portovenere
TTITLE8=Brandenburg No. 3 (J.S. Bach)
TTITLE9=Desolate Moon
TTITLE10=Serenata
TTITLE11=Prelude C/Ave Maria (J.S. Bach/C. Gounod)
TTITLE12=Vivaldi Concerto In G Minor (A. Vivaldi)
TTITLE13=Mozart and Beethoven Sonatas (Medley)
TTITLE14=Data Track
EXTD=YEAR: 2001
EXTT0=
EXTT1=
EXTT2=
EXTT3=
EXTT4=
EXTT5=
EXTT6=
EXTT7=
EXTT8=
EXTT9=
EXTT10=
EXTT11=
EXTT12=
EXTT13=
EXTT14=
PLAYORDER=
